custom-analysis
version=1
nRows=4
nColumns=98
inDegrees=no

This file contains tibia displacement and acting force.

Units are S.I. units (seconds, meters, Newtons, ...)
Angles are in degrees.

endheader
time	APT	SIT	knee_angle	aACL_R_force	pACL_R_force	aPCL_R_force	pPCL_R_force	aMCL_R_force	mMCL_R_force	pMCL_R_force	aLCL_R_force	mLCL_R_force	pLCL_R_force	aPCL_L_force	pPCL_L_force	aMCL_L_force	aLCL_L_force	aACL_R_length	pACL_R_length	aPCL_R_length	pPCL_R_length	aMCL_R_length	mMCL_R_length	pMCL_R_length	aLCL_R_length	mLCL_R_length	pLCL_R_length	aPCL_L_length	pPCL_L_length	aMCL_L_length	aLCL_L_length	aACL_R_strain	pACL_R_strain	aPCL_R_strain	pPCL_R_strain	aMCL_R_strain	mMCL_R_strain	pMCL_R_strain	aLCL_R_strain	mLCL_R_strain	pLCL_R_strain	aPCL_L_strain	pPCL_L_strain	aMCL_L_strain	aLCL_L_strain	femur_lat_meniscii_r.femur_lat_r.force.X	femur_lat_meniscii_r.femur_lat_r.force.Y	femur_lat_meniscii_r.femur_lat_r.force.Z	femur_lat_meniscii_r.femur_lat_r.torque.X	femur_lat_meniscii_r.femur_lat_r.torque.Y	femur_lat_meniscii_r.femur_lat_r.torque.Z	femur_lat_meniscii_r.meniscus_lat_r.force.X	femur_lat_meniscii_r.meniscus_lat_r.force.Y	femur_lat_meniscii_r.meniscus_lat_r.force.Z	femur_lat_meniscii_r.meniscus_lat_r.torque.X	femur_lat_meniscii_r.meniscus_lat_r.torque.Y	femur_lat_meniscii_r.meniscus_lat_r.torque.Z	femur_med_meniscii_r.femur_med_r.force.X	femur_med_meniscii_r.femur_med_r.force.Y	femur_med_meniscii_r.femur_med_r.force.Z	femur_med_meniscii_r.femur_med_r.torque.X	femur_med_meniscii_r.femur_med_r.torque.Y	femur_med_meniscii_r.femur_med_r.torque.Z	femur_med_meniscii_r.meniscus_med_r.force.X	femur_med_meniscii_r.meniscus_med_r.force.Y	femur_med_meniscii_r.meniscus_med_r.force.Z	femur_med_meniscii_r.meniscus_med_r.torque.X	femur_med_meniscii_r.meniscus_med_r.torque.Y	femur_med_meniscii_r.meniscus_med_r.torque.Z	femur_med_tibia_r.tibia_upper_r.force.X	femur_med_tibia_r.tibia_upper_r.force.Y	femur_med_tibia_r.tibia_upper_r.force.Z	femur_med_tibia_r.tibia_upper_r.torque.X	femur_med_tibia_r.tibia_upper_r.torque.Y	femur_med_tibia_r.tibia_upper_r.torque.Z	femur_med_tibia_r.femur_med_r.force.X	femur_med_tibia_r.femur_med_r.force.Y	femur_med_tibia_r.femur_med_r.force.Z	femur_med_tibia_r.femur_med_r.torque.X	femur_med_tibia_r.femur_med_r.torque.Y	femur_med_tibia_r.femur_med_r.torque.Z	femur_lat_tibia_r.tibia_upper_r.force.X	femur_lat_tibia_r.tibia_upper_r.force.Y	femur_lat_tibia_r.tibia_upper_r.force.Z	femur_lat_tibia_r.tibia_upper_r.torque.X	femur_lat_tibia_r.tibia_upper_r.torque.Y	femur_lat_tibia_r.tibia_upper_r.torque.Z	femur_lat_tibia_r.femur_lat_r.force.X	femur_lat_tibia_r.femur_lat_r.force.Y	femur_lat_tibia_r.femur_lat_r.force.Z	femur_lat_tibia_r.femur_lat_r.torque.X	femur_lat_tibia_r.femur_lat_r.torque.Y	femur_lat_tibia_r.femur_lat_r.torque.Z	femur_lat_meniscii_force_r	femur_med_meniscii_force_r	femur_lat_tibia_force_r	femur_med_tibia_force_r
      0.16349231	      0.01275809	      0.01710415	     56.36485359	     -3.58205032	      0.00000000	    569.11054332	    371.28836483	      0.00000000	      0.00000000	      0.00000000	      0.00000000	      0.00000000	      0.00000000	      0.00000000	      0.00000000	      0.00000001	      0.00000000	      0.03118263	      0.02389689	      0.03489633	      0.03240613	      0.05949085	      0.05920394	      0.05632726	      0.05254540	      0.04784050	      0.04297704	      0.01525851	      0.01651186	      0.06550154	      0.04489616	      0.00571297	     -0.04636342	      0.12223805	      0.08425961	     -0.00893187	     -0.00985998	     -0.04087890	     -0.06130702	     -0.15053815	     -0.17892959	      0.00000079	     -0.32847694	      0.00000060	     -0.00000086	     94.86821269	    179.21569163	     20.78833327	    -12.72741442	      2.29553002	     37.00201883	    -94.86821269	   -179.21569163	    -20.78833327	      4.97215721	     -2.86259142	      3.27796315	     23.13071128	     21.59813851	     12.10223208	     -4.38918889	     -0.53193864	      9.28846857	    -23.13071128	    -21.59813851	    -12.10223208	     -0.25056119	      0.25027766	      0.08204024	   -753.06850315	   -698.21560644	    221.46130254	    -16.18727913	     17.03613385	     -1.34842366	    753.06850315	    698.21560644	   -221.46130254	    102.74193663	    -13.65800999	    306.32380484	      0.00000000	      0.00000000	      0.00000000	      0.00000000	      0.00000000	      0.00000000	      0.00000000	      0.00000000	      0.00000000	      0.00000000	      0.00000000	      0.00000000	    203.83914419	     33.88175634	      0.00000000	   1050.55333612
      0.16375771	      0.01277576	      0.01715490	     56.50788943	     -3.55307568	      0.00000000	    571.81982413	    372.53024437	      0.00000000	      0.00000000	      0.00000000	      0.00000000	      0.00000000	      0.00000000	      0.00000000	      0.00000000	      0.00000001	      0.00000000	      0.03118005	      0.02389560	      0.03491225	      0.03241518	      0.05950429	      0.05920636	      0.05632235	      0.05253677	      0.04782551	      0.04295851	      0.01525851	      0.01651186	      0.06550154	      0.04489616	      0.00562963	     -0.04641508	      0.12274991	      0.08456212	     -0.00870786	     -0.00981945	     -0.04096252	     -0.06146119	     -0.15080427	     -0.17928362	      0.00000079	     -0.32847694	      0.00000060	     -0.00000086	     95.48021593	    179.31209126	     20.83883042	    -12.75172453	      2.30845045	     37.24528876	    -95.48021593	   -179.31209126	    -20.83883042	      4.97703806	     -2.87888784	      3.28553982	     23.32774019	     21.53841753	     11.96248409	     -4.33393879	     -0.53547681	      9.36588221	    -23.32774019	    -21.53841753	    -11.96248409	     -0.25232621	      0.25567952	      0.08145234	   -756.65593667	   -696.64844473	    221.44103664	    -16.14010152	     17.09430684	     -1.38316812	    756.65593667	    696.64844473	   -221.44103664	    102.69603646	    -13.71413046	    307.77559510	      0.00000000	      0.00000000	      0.00000000	      0.00000000	      0.00000000	      0.00000000	      0.00000000	      0.00000000	      0.00000000	      0.00000000	      0.00000000	      0.00000000	    204.21448176	     33.92916029	      0.00000000	   1052.08526022
      0.16398001	      0.01279046	      0.01719746	     56.62770067	     -3.56143624	      0.00000000	    574.10368447	    373.63549295	      0.00000000	      0.00000000	      0.00000000	      0.00000000	      0.00000000	      0.00000000	      0.00000000	      0.00000000	      0.00000001	      0.00000000	      0.03117789	      0.02389454	      0.03492553	      0.03242273	      0.05951554	      0.05920840	      0.05631829	      0.05252946	      0.04781289	      0.04294294	      0.01525851	      0.01651186	      0.06550154	      0.04489616	      0.00556013	     -0.04645720	      0.12317700	      0.08481475	     -0.00852054	     -0.00978531	     -0.04103174	     -0.06159193	     -0.15102842	     -0.17958102	      0.00000079	     -0.32847694	      0.00000060	     -0.00000086	     96.85644417	    178.41546316	     20.23804845	    -12.47461560	      2.34276185	     37.81668333	    -96.85644417	   -178.41546316	    -20.23804845	      4.93049677	     -2.90417812	      3.23776273	     23.12304686	     21.28511245	     11.86275800	     -4.30063778	     -0.52791836	      9.28051925	    -23.12304686	    -21.28511245	    -11.86275800	     -0.24781956	      0.24989746	      0.08424217	   -758.63279788	   -696.17862798	    221.66588738	    -16.11801881	     17.13538662	     -1.35842606	    758.63279788	    696.17862798	   -221.66588738	    102.76972010	    -13.74704584	    308.55821146	      0.00000000	      0.00000000	      0.00000000	      0.00000000	      0.00000000	      0.00000000	      0.00000000	      0.00000000	      0.00000000	      0.00000000	      0.00000000	      0.00000000	    204.01673186	     33.59250416	      0.00000000	   1053.24459159
      0.16427163	      0.01280959	      0.01725334	     56.78488395	     -3.53823273	      0.00000000	    577.06112282	    375.00978314	      0.00000000	      0.00000000	      0.00000000	      0.00000000	      0.00000000	      0.00000000	      0.00000000	      0.00000000	      0.00000001	      0.00000000	      0.03117507	      0.02389319	      0.03494288	      0.03243260	      0.05953026	      0.05921109	      0.05631302	      0.05251974	      0.04779624	      0.04292247	      0.01525851	      0.01651186	      0.06550154	      0.04489616	      0.00546912	     -0.04651133	      0.12373504	      0.08514517	     -0.00827526	     -0.00974029	     -0.04112142	     -0.06176558	     -0.15132408	     -0.17997225	      0.00000079	     -0.32847694	      0.00000060	     -0.00000086	     97.33054053	    179.34722766	     20.24689741	    -12.50258278	      2.35144069	     37.99132809	    -97.33054053	   -179.34722766	    -20.24689741	      4.95640628	     -2.91530019	      3.27919638	     23.25164812	     21.10257623	     11.75887129	     -4.26277018	     -0.52956069	      9.33124177	    -23.25164812	    -21.10257623	    -11.75887129	     -0.24625879	      0.25272782	      0.08158698	   -761.58018664	   -695.15104836	    221.57641259	    -16.07242020	     17.18159602	     -1.34870132	    761.58018664	    695.15104836	   -221.57641259	    102.70071802	    -13.79100046	    309.73609003	      0.00000000	      0.00000000	      0.00000000	      0.00000000	      0.00000000	      0.00000000	      0.00000000	      0.00000000	      0.00000000	      0.00000000	      0.00000000	      0.00000000	    205.05755057	     33.52952308	      0.00000000	   1054.67315664
